<?xml version="1.0" encoding="UTF-8"?>
<svg id="_Слой_2" data-name="Слой 2" xmlns="http://www.w3.org/2000/svg" xmlns:xlink="http://www.w3.org/1999/xlink" viewBox="0 0 385 121">
  <defs>
    <style>
      .cls-1 {
        fill: #fff;
        filter: url(#drop-shadow-1);
      }
    </style>
    <filter id="drop-shadow-1" x="0" y="0" width="385" height="121" filterUnits="userSpaceOnUse">
      <feOffset dx="0" dy="2"/>
      <feGaussianBlur result="blur" stdDeviation="5"/>
      <feFlood flood-color="#000" flood-opacity="1"/>
      <feComposite in2="blur" operator="in"/>
      <feComposite in="SourceGraphic"/>
    </filter>
  </defs>
  <g id="Variations">
    <g id="Light">
      <path id="Text_Only_v2" data-name="Text Only v2" class="cls-1" d="M342.51,56.22h5.47v-10.02c4.13-.77,8.25-1.55,12.38-2.32.03,4.08.07,8.16.1,12.25,3.12.03,6.23.06,9.35.09.02,3.49.05,6.97.07,10.46-3.14.03-6.27.07-9.41.1.11,7.95.19,14.21.11,18.78-.02.87-.05,2.6,1.09,3.83,2.04,2.2,6.34,1.17,7.67.81.25,1.21.46,2.61.55,4.16.13,2.23-.01,4.2-.25,5.8-1.49.78-4.68,2.18-8.84,1.93-1.96-.12-5.96-.35-9.12-3.53-3.12-3.13-3.42-7.11-3.47-8.27-.03-7.82-.05-15.64-.08-23.47-1.88-.05-3.76-.1-5.63-.16v-10.44ZM336.66,82.5h-28.61c.16.68,1.4,6.12,6.05,8.13,2.87,1.24,5.96.68,7.25.47.78-.14,1.97-.36,3.35-1.06,2.14-1.09,3.43-2.65,4.07-3.57,2.64,1.52,5.26,3.06,7.89,4.58-.81,1.74-2.98,5.73-7.61,8.44-4,2.34-7.75,2.48-9.86,2.59-2.31.11-12.12.23-18.52-7.22-4.78-5.57-4.95-12.09-5.01-15.2-.09-3.34-.37-15.07,8.8-21.47,7.93-5.51,19.57-4.69,25.88,1.26,4.66,4.42,5.74,11.05,6.21,13.94.62,3.76.4,6.95.11,9.1ZM324.68,73.76c.23-3.41-1.52-6.61-4.42-8.13-3.9-2.03-7.71.08-7.95.22-2.76,1.58-4.39,4.66-4.24,7.92h16.61ZM287.15,77.02c0-4.89-.62-8.8-1.85-11.75-1.24-2.95-2.9-5.18-4.99-6.71-2.09-1.53-4.52-2.53-7.29-3-2.77-.47-5.65-.71-8.66-.71-3.36,0-6.58.31-9.67.93-3.09.62-5.58,1.25-7.46,1.9v43.91c2.12.35,4.21.53,6.27.53s4.06-.18,6.18-.53v-35.78c1.47-.41,3.3-.62,5.48-.62,1.59,0,2.97.19,4.15.57,1.18.38,2.17,1.03,2.96,1.94.8.91,1.38,2.15,1.77,3.71.38,1.56.57,3.55.57,5.96v24.21c2.12.35,4.21.53,6.27.53s4.15-.18,6.27-.53v-24.56ZM59.09,100.84c3.83-1.67,7.01-3.99,9.54-6.97,2.52-2.97,4.4-6.46,5.62-10.45,1.22-3.99,1.83-8.31,1.83-12.96s-.61-9-1.83-13.08c-1.22-4.07-3.1-7.6-5.62-10.58-2.53-2.97-5.71-5.32-9.54-7.03-3.83-1.71-8.31-2.57-13.45-2.57s-9.6.86-13.39,2.57c-3.79,1.71-6.93,4.05-9.41,7.03-2.49,2.98-4.36,6.5-5.62,10.58-1.26,4.07-1.9,8.43-1.9,13.08s.63,8.97,1.9,12.96c1.26,3.99,3.14,7.48,5.62,10.45,2.48,2.97,5.62,5.3,9.41,6.97,3.79,1.67,8.25,2.51,13.39,2.51s9.62-.84,13.45-2.51ZM35.92,85.07c-2-3.38-3-8.25-3-14.61s1-11.23,3-14.61c2-3.38,5.23-5.07,9.72-5.07s7.84,1.69,9.84,5.07c2,3.38,2.99,8.25,2.99,14.61s-1,11.23-2.99,14.61c-2,3.38-5.28,5.07-9.84,5.07s-7.72-1.69-9.72-5.07ZM109.57,76.58c2.12.65,3.77,1.41,4.95,2.26,1.18.86,1.77,2.26,1.77,4.22,0,1.39-.39,2.5-1.16,3.36-.77.86-1.73,1.55-2.87,2.08-1.14.53-2.38.9-3.73,1.1-1.34.2-2.59.31-3.73.31-2.61,0-5.12-.26-7.52-.8-2.4-.53-4.95-1.32-7.64-2.38-.98,2.12-1.77,4.3-2.38,6.54-.61,2.24-1,4.46-1.16,6.66,1.71.65,3.3,1.18,4.77,1.59,1.47.41,2.95.75,4.46,1.04,1.51.28,3.07.49,4.71.61,1.63.12,3.42.18,5.38.18,4.32,0,8.19-.55,11.61-1.65s6.34-2.61,8.74-4.52c2.4-1.92,4.24-4.17,5.5-6.79,1.26-2.61,1.9-5.42,1.9-8.43s-.37-5.42-1.1-7.46c-.73-2.04-1.75-3.75-3.06-5.13-1.3-1.39-2.87-2.55-4.71-3.49-1.83-.93-3.89-1.73-6.17-2.38l-6.97-2.08c-2.04-.65-3.61-1.34-4.71-2.08-1.1-.73-1.65-2-1.65-3.79s.77-3.24,2.32-4.1c1.55-.86,3.71-1.28,6.48-1.28,2.61,0,5.09.31,7.46.92,2.36.61,4.52,1.33,6.48,2.14.9-1.71,1.67-3.71,2.32-5.99.65-2.28,1.06-4.48,1.22-6.6-3.18-1.14-6.32-2-9.41-2.57-3.1-.57-6.23-.86-9.41-.86-7.66,0-13.71,1.75-18.15,5.26-4.44,3.5-6.66,8.35-6.66,14.55,0,5.13,1.28,8.99,3.85,11.55,2.57,2.57,6.13,4.5,10.7,5.81l7.58,2.2ZM144.9,72.67c0,6.77.86,12.18,2.57,16.26,1.71,4.08,4.01,7.17,6.91,9.29,2.89,2.12,6.25,3.5,10.09,4.16,3.83.65,7.82.98,11.98.98,4.64,0,9.11-.43,13.39-1.28,4.28-.86,7.72-1.73,10.33-2.63v-60.75c-2.93-.49-5.83-.73-8.68-.73s-5.62.24-8.56.73v49.51c-2.04.57-4.56.86-7.58.86-2.2,0-4.12-.26-5.75-.79-1.63-.53-3-1.43-4.1-2.69-1.1-1.26-1.92-2.97-2.44-5.13-.53-2.16-.79-4.91-.79-8.25v-33.49c-2.93-.49-5.83-.73-8.68-.73s-5.75.24-8.68.73v33.98ZM225.7,102.61c2.85,0,5.83-.24,8.92-.73.49-3.02.73-6.03.73-9.05,0-2.85-.24-5.82-.73-8.92-3.1-.49-6.11-.73-9.05-.73s-5.91.24-8.92.73c-.49,3.1-.73,6.11-.73,9.05s.24,5.91.73,8.92c3.02.49,6.03.73,9.05.73ZM217.39,73.77c2.77.49,5.54.73,8.31.73,2.61,0,5.34-.24,8.19-.73l1.22-59.78c-3.18-.49-6.36-.73-9.53-.73s-6.23.24-9.41.73l1.22,59.78Z"/>
    </g>
  </g>
</svg>